# xmcd
# Track frame offsets:
# 150
# 11106
# 23736
# 34158
# 45333
# 55810
# 67070
# 80868
# 92166
# 101856
# 113469
# 124036
# 135737
# 146756
# 159615
# 168663
# 181582
# 192074
#
# Disc length: 2708 seconds
# Revision: 0
# Processed by: cddbd v1.5.2PL0 Copyright (c) Steve Scherf et al.
# Submitted via: VisiTrax 2.10.0.248 - For more info visit www.synapsa.com
#
DISCID=f50a9212
DTITLE=Jim Reeves - Jim Reeves Greatest Vol 2
DYEAR=1900
DGENRE=Country
TTITLE0=Make The World Go Away
TTITLE1=I Can't Stop Loving You
TTITLE2=The Wreck Of The Number Nine
TTITLE3=Moonlight And Roses
TTITLE4=It's Only A Paper Moon
TTITLE5=Am I That Easy To Forget
TTITLE6=I Fall to Pieces
TTITLE7=I'm A Fool To Care
TTITLE8=The Storm
TTITLE9=Welcome To My World
TTITLE10=Scarlet Ribbons
TTITLE11=Missing You
TTITLE12=How Can I Write On Paper What I Feel In My Heart
TTITLE13=Golden Memories And Silver Tears
TTITLE14=I'm Crying Again
TTITLE15=Four Walls
TTITLE16=Am I Losing You
TTITLE17=Anna Marie
EXTD=
EXTT0=
EXTT1=
EXTT2=
EXTT3=
EXTT4=
EXTT5=
EXTT6=
EXTT7=
EXTT8=
EXTT9=
EXTT10=
EXTT11=
EXTT12=
EXTT13=
EXTT14=
EXTT15=
EXTT16=
EXTT17=
PLAYORDER=
